<mxfile host="Electron" modified="2024-01-04T11:03:55.426Z" agent="Mozilla/5.0 (Macintosh; Intel Mac OS X 10_15_7) AppleWebKit/537.36 (KHTML, like Gecko) draw.io/22.1.16 Chrome/120.0.6099.109 Electron/28.1.0 Safari/537.36" etag="X6HZjxtnRln9kz9tIOkJ" version="22.1.16" type="device">
  <diagram name="Page-1" id="6eCujkbYY5Rpda6uV9Oo">
    <mxGraphModel dx="855" dy="572" grid="1" gridSize="10" guides="1" tooltips="1" connect="1" arrows="1" fold="1" page="1" pageScale="1" pageWidth="850" pageHeight="1100" math="0" shadow="0">
      <root>
        <mxCell id="0" />
        <mxCell id="1" parent="0" />
        <mxCell id="srztP3TWbClASkw0fo8l-6" value="ip-access-control-web" style="shape=umlLifeline;perimeter=lifelinePerimeter;whiteSpace=wrap;html=1;container=1;dropTarget=0;collapsible=0;recursiveResize=0;outlineConnect=0;portConstraint=eastwest;newEdgeStyle={&quot;curved&quot;:0,&quot;rounded&quot;:0};" vertex="1" parent="1">
          <mxGeometry x="70" y="160" width="100" height="300" as="geometry" />
        </mxCell>
        <mxCell id="srztP3TWbClASkw0fo8l-7" value="ip-access-control" style="shape=umlLifeline;perimeter=lifelinePerimeter;whiteSpace=wrap;html=1;container=1;dropTarget=0;collapsible=0;recursiveResize=0;outlineConnect=0;portConstraint=eastwest;newEdgeStyle={&quot;curved&quot;:0,&quot;rounded&quot;:0};" vertex="1" parent="1">
          <mxGeometry x="325" y="160" width="100" height="300" as="geometry" />
        </mxCell>
        <mxCell id="srztP3TWbClASkw0fo8l-9" value="" style="html=1;points=[[0,0,0,0,5],[0,1,0,0,-5],[1,0,0,0,5],[1,1,0,0,-5]];perimeter=orthogonalPerimeter;outlineConnect=0;targetShapes=umlLifeline;portConstraint=eastwest;newEdgeStyle={&quot;curved&quot;:0,&quot;rounded&quot;:0};" vertex="1" parent="srztP3TWbClASkw0fo8l-7">
          <mxGeometry x="45" y="80" width="10" height="130" as="geometry" />
        </mxCell>
        <mxCell id="srztP3TWbClASkw0fo8l-8" value="DB" style="shape=umlLifeline;perimeter=lifelinePerimeter;whiteSpace=wrap;html=1;container=1;dropTarget=0;collapsible=0;recursiveResize=0;outlineConnect=0;portConstraint=eastwest;newEdgeStyle={&quot;curved&quot;:0,&quot;rounded&quot;:0};" vertex="1" parent="1">
          <mxGeometry x="550" y="160" width="100" height="300" as="geometry" />
        </mxCell>
        <mxCell id="srztP3TWbClASkw0fo8l-10" value="" style="html=1;verticalAlign=bottom;endArrow=block;curved=0;rounded=0;" edge="1" target="srztP3TWbClASkw0fo8l-9" parent="1">
          <mxGeometry relative="1" as="geometry">
            <mxPoint x="119.5" y="249" as="sourcePoint" />
            <mxPoint x="360" y="250" as="targetPoint" />
          </mxGeometry>
        </mxCell>
        <mxCell id="srztP3TWbClASkw0fo8l-12" value="POST /users/{id}/activate" style="edgeLabel;html=1;align=center;verticalAlign=middle;resizable=0;points=[];" vertex="1" connectable="0" parent="srztP3TWbClASkw0fo8l-10">
          <mxGeometry x="0.0283" relative="1" as="geometry">
            <mxPoint as="offset" />
          </mxGeometry>
        </mxCell>
        <mxCell id="srztP3TWbClASkw0fo8l-11" value="200 OK" style="html=1;verticalAlign=bottom;endArrow=open;dashed=1;endSize=8;curved=0;rounded=0;exitX=0;exitY=1;exitDx=0;exitDy=-5;" edge="1" source="srztP3TWbClASkw0fo8l-9" parent="1" target="srztP3TWbClASkw0fo8l-6">
          <mxGeometry relative="1" as="geometry">
            <mxPoint x="350" y="315" as="targetPoint" />
          </mxGeometry>
        </mxCell>
        <mxCell id="srztP3TWbClASkw0fo8l-13" style="edgeStyle=orthogonalEdgeStyle;rounded=0;orthogonalLoop=1;jettySize=auto;html=1;curved=0;" edge="1" parent="1">
          <mxGeometry relative="1" as="geometry">
            <mxPoint x="380" y="270" as="sourcePoint" />
            <mxPoint x="600" y="270" as="targetPoint" />
          </mxGeometry>
        </mxCell>
        <mxCell id="srztP3TWbClASkw0fo8l-14" value="finds user by id" style="edgeLabel;html=1;align=center;verticalAlign=middle;resizable=0;points=[];" vertex="1" connectable="0" parent="srztP3TWbClASkw0fo8l-13">
          <mxGeometry x="-0.0706" relative="1" as="geometry">
            <mxPoint as="offset" />
          </mxGeometry>
        </mxCell>
        <mxCell id="srztP3TWbClASkw0fo8l-15" style="edgeStyle=orthogonalEdgeStyle;rounded=0;orthogonalLoop=1;jettySize=auto;html=1;curved=0;" edge="1" parent="1" source="srztP3TWbClASkw0fo8l-9" target="srztP3TWbClASkw0fo8l-8">
          <mxGeometry relative="1" as="geometry">
            <Array as="points">
              <mxPoint x="490" y="310" />
              <mxPoint x="490" y="310" />
            </Array>
          </mxGeometry>
        </mxCell>
        <mxCell id="srztP3TWbClASkw0fo8l-16" value="saves user with isActive=true" style="edgeLabel;html=1;align=center;verticalAlign=middle;resizable=0;points=[];" vertex="1" connectable="0" parent="srztP3TWbClASkw0fo8l-15">
          <mxGeometry x="-0.1192" y="-1" relative="1" as="geometry">
            <mxPoint x="23" as="offset" />
          </mxGeometry>
        </mxCell>
        <mxCell id="srztP3TWbClASkw0fo8l-17" value="ip-access-control-bot" style="shape=umlLifeline;perimeter=lifelinePerimeter;whiteSpace=wrap;html=1;container=1;dropTarget=0;collapsible=0;recursiveResize=0;outlineConnect=0;portConstraint=eastwest;newEdgeStyle={&quot;curved&quot;:0,&quot;rounded&quot;:0};" vertex="1" parent="1">
          <mxGeometry x="770" y="160" width="100" height="300" as="geometry" />
        </mxCell>
        <mxCell id="srztP3TWbClASkw0fo8l-18" style="edgeStyle=orthogonalEdgeStyle;rounded=0;orthogonalLoop=1;jettySize=auto;html=1;curved=0;" edge="1" parent="1">
          <mxGeometry relative="1" as="geometry">
            <mxPoint x="380.25" y="350.0000000000001" as="sourcePoint" />
            <mxPoint x="819.7500000000002" y="350.0000000000001" as="targetPoint" />
            <Array as="points">
              <mxPoint x="700.25" y="350" />
              <mxPoint x="700.25" y="350" />
            </Array>
          </mxGeometry>
        </mxCell>
        <mxCell id="srztP3TWbClASkw0fo8l-19" value="notify that user is activated" style="edgeLabel;html=1;align=center;verticalAlign=middle;resizable=0;points=[];" vertex="1" connectable="0" parent="srztP3TWbClASkw0fo8l-18">
          <mxGeometry x="-0.5726" y="3" relative="1" as="geometry">
            <mxPoint x="18" y="3" as="offset" />
          </mxGeometry>
        </mxCell>
      </root>
    </mxGraphModel>
  </diagram>
</mxfile>
